<mxfile host="app.diagrams.net" agent="Mozilla/5.0 (Windows NT 10.0; Win64; x64) AppleWebKit/537.36 (KHTML, like Gecko) Chrome/132.0.0.0 Safari/537.36 Edg/132.0.0.0" version="26.0.11">
  <diagram id="C5RBs43oDa-KdzZeNtuy" name="Page-1">
    <mxGraphModel dx="1310" dy="778" grid="1" gridSize="10" guides="1" tooltips="1" connect="1" arrows="1" fold="1" page="1" pageScale="1" pageWidth="827" pageHeight="1169" math="0" shadow="0">
      <root>
        <mxCell id="WIyWlLk6GJQsqaUBKTNV-0" />
        <mxCell id="WIyWlLk6GJQsqaUBKTNV-1" parent="WIyWlLk6GJQsqaUBKTNV-0" />
        <mxCell id="WIyWlLk6GJQsqaUBKTNV-2" value="" style="rounded=0;html=1;jettySize=auto;orthogonalLoop=1;fontSize=11;endArrow=block;endFill=0;endSize=8;strokeWidth=1;shadow=0;labelBackgroundColor=none;edgeStyle=orthogonalEdgeStyle;" parent="WIyWlLk6GJQsqaUBKTNV-1" source="WIyWlLk6GJQsqaUBKTNV-3" edge="1">
          <mxGeometry relative="1" as="geometry">
            <mxPoint x="220" y="170" as="targetPoint" />
          </mxGeometry>
        </mxCell>
        <mxCell id="WIyWlLk6GJQsqaUBKTNV-3" value="Product received (A dress)" style="rounded=1;whiteSpace=wrap;html=1;fontSize=12;glass=0;strokeWidth=1;shadow=0;" parent="WIyWlLk6GJQsqaUBKTNV-1" vertex="1">
          <mxGeometry x="160" y="80" width="120" height="40" as="geometry" />
        </mxCell>
        <mxCell id="oRuT0LxG3NLmyy9AP-Yn-33" value="" style="edgeStyle=orthogonalEdgeStyle;rounded=0;orthogonalLoop=1;jettySize=auto;html=1;" edge="1" parent="WIyWlLk6GJQsqaUBKTNV-1" source="oRuT0LxG3NLmyy9AP-Yn-1" target="oRuT0LxG3NLmyy9AP-Yn-22">
          <mxGeometry relative="1" as="geometry" />
        </mxCell>
        <mxCell id="oRuT0LxG3NLmyy9AP-Yn-1" value="Check the store&#39;s return policy" style="rounded=1;whiteSpace=wrap;html=1;fontSize=12;glass=0;strokeWidth=1;shadow=0;" vertex="1" parent="WIyWlLk6GJQsqaUBKTNV-1">
          <mxGeometry x="160" y="330" width="120" height="40" as="geometry" />
        </mxCell>
        <mxCell id="oRuT0LxG3NLmyy9AP-Yn-2" value="" style="rounded=0;html=1;jettySize=auto;orthogonalLoop=1;fontSize=11;endArrow=block;endFill=0;endSize=8;strokeWidth=1;shadow=0;labelBackgroundColor=none;edgeStyle=orthogonalEdgeStyle;" edge="1" parent="WIyWlLk6GJQsqaUBKTNV-1" target="oRuT0LxG3NLmyy9AP-Yn-16">
          <mxGeometry relative="1" as="geometry">
            <mxPoint x="219.5" y="210" as="sourcePoint" />
            <mxPoint x="219.5" y="260" as="targetPoint" />
          </mxGeometry>
        </mxCell>
        <mxCell id="oRuT0LxG3NLmyy9AP-Yn-18" style="edgeStyle=orthogonalEdgeStyle;rounded=0;orthogonalLoop=1;jettySize=auto;html=1;entryX=0;entryY=0.5;entryDx=0;entryDy=0;" edge="1" parent="WIyWlLk6GJQsqaUBKTNV-1" source="oRuT0LxG3NLmyy9AP-Yn-3" target="oRuT0LxG3NLmyy9AP-Yn-17">
          <mxGeometry relative="1" as="geometry" />
        </mxCell>
        <mxCell id="oRuT0LxG3NLmyy9AP-Yn-3" value="Product error?" style="rhombus;whiteSpace=wrap;html=1;" vertex="1" parent="WIyWlLk6GJQsqaUBKTNV-1">
          <mxGeometry x="155" y="170" width="135" height="70" as="geometry" />
        </mxCell>
        <mxCell id="oRuT0LxG3NLmyy9AP-Yn-27" value="" style="edgeStyle=orthogonalEdgeStyle;rounded=0;orthogonalLoop=1;jettySize=auto;html=1;" edge="1" parent="WIyWlLk6GJQsqaUBKTNV-1" source="oRuT0LxG3NLmyy9AP-Yn-4" target="oRuT0LxG3NLmyy9AP-Yn-6">
          <mxGeometry relative="1" as="geometry" />
        </mxCell>
        <mxCell id="oRuT0LxG3NLmyy9AP-Yn-4" value="Pack the dress with receipt" style="rounded=1;whiteSpace=wrap;html=1;fontSize=12;glass=0;strokeWidth=1;shadow=0;" vertex="1" parent="WIyWlLk6GJQsqaUBKTNV-1">
          <mxGeometry x="160" y="610" width="120" height="40" as="geometry" />
        </mxCell>
        <mxCell id="oRuT0LxG3NLmyy9AP-Yn-30" value="" style="edgeStyle=orthogonalEdgeStyle;rounded=0;orthogonalLoop=1;jettySize=auto;html=1;" edge="1" parent="WIyWlLk6GJQsqaUBKTNV-1" target="oRuT0LxG3NLmyy9AP-Yn-11">
          <mxGeometry relative="1" as="geometry">
            <mxPoint x="785.0000000000002" y="630" as="sourcePoint" />
          </mxGeometry>
        </mxCell>
        <mxCell id="oRuT0LxG3NLmyy9AP-Yn-5" value="Go to the store or mail it" style="rounded=1;whiteSpace=wrap;html=1;fontSize=12;glass=0;strokeWidth=1;shadow=0;" vertex="1" parent="WIyWlLk6GJQsqaUBKTNV-1">
          <mxGeometry x="654.5" y="610" width="120" height="40" as="geometry" />
        </mxCell>
        <mxCell id="oRuT0LxG3NLmyy9AP-Yn-40" value="" style="edgeStyle=orthogonalEdgeStyle;rounded=0;orthogonalLoop=1;jettySize=auto;html=1;" edge="1" parent="WIyWlLk6GJQsqaUBKTNV-1" source="oRuT0LxG3NLmyy9AP-Yn-6" target="oRuT0LxG3NLmyy9AP-Yn-37">
          <mxGeometry relative="1" as="geometry" />
        </mxCell>
        <mxCell id="oRuT0LxG3NLmyy9AP-Yn-44" value="" style="edgeStyle=orthogonalEdgeStyle;rounded=0;orthogonalLoop=1;jettySize=auto;html=1;" edge="1" parent="WIyWlLk6GJQsqaUBKTNV-1" source="oRuT0LxG3NLmyy9AP-Yn-6" target="oRuT0LxG3NLmyy9AP-Yn-39">
          <mxGeometry relative="1" as="geometry" />
        </mxCell>
        <mxCell id="oRuT0LxG3NLmyy9AP-Yn-6" value="Store checks the quality of the dress" style="rounded=1;whiteSpace=wrap;html=1;fontSize=12;glass=0;strokeWidth=1;shadow=0;" vertex="1" parent="WIyWlLk6GJQsqaUBKTNV-1">
          <mxGeometry x="480" y="610" width="120" height="40" as="geometry" />
        </mxCell>
        <mxCell id="oRuT0LxG3NLmyy9AP-Yn-29" value="" style="edgeStyle=orthogonalEdgeStyle;rounded=0;orthogonalLoop=1;jettySize=auto;html=1;" edge="1" parent="WIyWlLk6GJQsqaUBKTNV-1" source="oRuT0LxG3NLmyy9AP-Yn-11">
          <mxGeometry relative="1" as="geometry">
            <mxPoint x="1085" y="630" as="targetPoint" />
          </mxGeometry>
        </mxCell>
        <mxCell id="oRuT0LxG3NLmyy9AP-Yn-11" value="Choose refund or exchange" style="rounded=1;whiteSpace=wrap;html=1;fontSize=12;glass=0;strokeWidth=1;shadow=0;" vertex="1" parent="WIyWlLk6GJQsqaUBKTNV-1">
          <mxGeometry x="845" y="610" width="190" height="40" as="geometry" />
        </mxCell>
        <mxCell id="oRuT0LxG3NLmyy9AP-Yn-14" value="Get money back or new toy" style="rounded=1;whiteSpace=wrap;html=1;fontSize=12;glass=0;strokeWidth=1;shadow=0;" vertex="1" parent="WIyWlLk6GJQsqaUBKTNV-1">
          <mxGeometry x="1080" y="610" width="190" height="40" as="geometry" />
        </mxCell>
        <mxCell id="oRuT0LxG3NLmyy9AP-Yn-21" value="" style="edgeStyle=orthogonalEdgeStyle;rounded=0;orthogonalLoop=1;jettySize=auto;html=1;" edge="1" parent="WIyWlLk6GJQsqaUBKTNV-1" source="oRuT0LxG3NLmyy9AP-Yn-16" target="oRuT0LxG3NLmyy9AP-Yn-1">
          <mxGeometry relative="1" as="geometry" />
        </mxCell>
        <mxCell id="oRuT0LxG3NLmyy9AP-Yn-16" value="Yes" style="rounded=0;whiteSpace=wrap;html=1;" vertex="1" parent="WIyWlLk6GJQsqaUBKTNV-1">
          <mxGeometry x="193.75" y="270" width="50.5" height="20" as="geometry" />
        </mxCell>
        <mxCell id="oRuT0LxG3NLmyy9AP-Yn-20" value="" style="edgeStyle=orthogonalEdgeStyle;rounded=0;orthogonalLoop=1;jettySize=auto;html=1;" edge="1" parent="WIyWlLk6GJQsqaUBKTNV-1" source="oRuT0LxG3NLmyy9AP-Yn-17" target="oRuT0LxG3NLmyy9AP-Yn-19">
          <mxGeometry relative="1" as="geometry" />
        </mxCell>
        <mxCell id="oRuT0LxG3NLmyy9AP-Yn-17" value="No" style="rounded=0;whiteSpace=wrap;html=1;" vertex="1" parent="WIyWlLk6GJQsqaUBKTNV-1">
          <mxGeometry x="354" y="190" width="66" height="30" as="geometry" />
        </mxCell>
        <mxCell id="oRuT0LxG3NLmyy9AP-Yn-19" value="Accept product" style="rounded=0;whiteSpace=wrap;html=1;" vertex="1" parent="WIyWlLk6GJQsqaUBKTNV-1">
          <mxGeometry x="495" y="190" width="90" height="30" as="geometry" />
        </mxCell>
        <mxCell id="oRuT0LxG3NLmyy9AP-Yn-31" value="" style="edgeStyle=orthogonalEdgeStyle;rounded=0;orthogonalLoop=1;jettySize=auto;html=1;" edge="1" parent="WIyWlLk6GJQsqaUBKTNV-1" source="oRuT0LxG3NLmyy9AP-Yn-22" target="oRuT0LxG3NLmyy9AP-Yn-23">
          <mxGeometry relative="1" as="geometry" />
        </mxCell>
        <mxCell id="oRuT0LxG3NLmyy9AP-Yn-32" value="" style="edgeStyle=orthogonalEdgeStyle;rounded=0;orthogonalLoop=1;jettySize=auto;html=1;" edge="1" parent="WIyWlLk6GJQsqaUBKTNV-1" source="oRuT0LxG3NLmyy9AP-Yn-22" target="oRuT0LxG3NLmyy9AP-Yn-24">
          <mxGeometry relative="1" as="geometry" />
        </mxCell>
        <mxCell id="oRuT0LxG3NLmyy9AP-Yn-22" value="Can it be returned?" style="rhombus;whiteSpace=wrap;html=1;" vertex="1" parent="WIyWlLk6GJQsqaUBKTNV-1">
          <mxGeometry x="151.5" y="400" width="135" height="70" as="geometry" />
        </mxCell>
        <mxCell id="oRuT0LxG3NLmyy9AP-Yn-36" value="" style="edgeStyle=orthogonalEdgeStyle;rounded=0;orthogonalLoop=1;jettySize=auto;html=1;" edge="1" parent="WIyWlLk6GJQsqaUBKTNV-1" source="oRuT0LxG3NLmyy9AP-Yn-23" target="oRuT0LxG3NLmyy9AP-Yn-35">
          <mxGeometry relative="1" as="geometry" />
        </mxCell>
        <mxCell id="oRuT0LxG3NLmyy9AP-Yn-23" value="No" style="rounded=0;whiteSpace=wrap;html=1;" vertex="1" parent="WIyWlLk6GJQsqaUBKTNV-1">
          <mxGeometry x="354" y="420" width="66" height="30" as="geometry" />
        </mxCell>
        <mxCell id="oRuT0LxG3NLmyy9AP-Yn-34" value="" style="edgeStyle=orthogonalEdgeStyle;rounded=0;orthogonalLoop=1;jettySize=auto;html=1;" edge="1" parent="WIyWlLk6GJQsqaUBKTNV-1" source="oRuT0LxG3NLmyy9AP-Yn-24" target="oRuT0LxG3NLmyy9AP-Yn-4">
          <mxGeometry relative="1" as="geometry" />
        </mxCell>
        <mxCell id="oRuT0LxG3NLmyy9AP-Yn-24" value="Yes" style="rounded=0;whiteSpace=wrap;html=1;" vertex="1" parent="WIyWlLk6GJQsqaUBKTNV-1">
          <mxGeometry x="194.75" y="510" width="50.5" height="20" as="geometry" />
        </mxCell>
        <mxCell id="oRuT0LxG3NLmyy9AP-Yn-35" value="Keep it or give to someone" style="rounded=0;whiteSpace=wrap;html=1;" vertex="1" parent="WIyWlLk6GJQsqaUBKTNV-1">
          <mxGeometry x="480" y="405" width="120" height="60" as="geometry" />
        </mxCell>
        <mxCell id="oRuT0LxG3NLmyy9AP-Yn-42" value="" style="edgeStyle=orthogonalEdgeStyle;rounded=0;orthogonalLoop=1;jettySize=auto;html=1;" edge="1" parent="WIyWlLk6GJQsqaUBKTNV-1" source="oRuT0LxG3NLmyy9AP-Yn-37" target="oRuT0LxG3NLmyy9AP-Yn-38">
          <mxGeometry relative="1" as="geometry" />
        </mxCell>
        <mxCell id="oRuT0LxG3NLmyy9AP-Yn-37" value="Approve the return product?" style="rhombus;whiteSpace=wrap;html=1;" vertex="1" parent="WIyWlLk6GJQsqaUBKTNV-1">
          <mxGeometry x="425" y="740" width="230" height="70" as="geometry" />
        </mxCell>
        <mxCell id="oRuT0LxG3NLmyy9AP-Yn-43" value="" style="edgeStyle=orthogonalEdgeStyle;rounded=0;orthogonalLoop=1;jettySize=auto;html=1;" edge="1" parent="WIyWlLk6GJQsqaUBKTNV-1" source="oRuT0LxG3NLmyy9AP-Yn-38" target="oRuT0LxG3NLmyy9AP-Yn-5">
          <mxGeometry relative="1" as="geometry" />
        </mxCell>
        <mxCell id="oRuT0LxG3NLmyy9AP-Yn-38" value="Yes" style="rounded=0;whiteSpace=wrap;html=1;" vertex="1" parent="WIyWlLk6GJQsqaUBKTNV-1">
          <mxGeometry x="690" y="765" width="50.5" height="20" as="geometry" />
        </mxCell>
        <mxCell id="oRuT0LxG3NLmyy9AP-Yn-45" value="" style="edgeStyle=orthogonalEdgeStyle;rounded=0;orthogonalLoop=1;jettySize=auto;html=1;" edge="1" parent="WIyWlLk6GJQsqaUBKTNV-1" source="oRuT0LxG3NLmyy9AP-Yn-39" target="oRuT0LxG3NLmyy9AP-Yn-35">
          <mxGeometry relative="1" as="geometry" />
        </mxCell>
        <mxCell id="oRuT0LxG3NLmyy9AP-Yn-39" value="No" style="rounded=0;whiteSpace=wrap;html=1;" vertex="1" parent="WIyWlLk6GJQsqaUBKTNV-1">
          <mxGeometry x="507" y="540" width="66" height="30" as="geometry" />
        </mxCell>
      </root>
    </mxGraphModel>
  </diagram>
</mxfile>
